solid OpenSCAD_Model
  facet normal -2.22045e-16 1 0
    outer loop
      vertex -7.99361e-15 36 0
      vertex -7.99361e-15 36 40
      vertex 16 36 0
    endloop
  endfacet
  facet normal -2.22045e-16 1 0
    outer loop
      vertex 16 36 0
      vertex -7.99361e-15 36 40
      vertex 16 36 40
    endloop
  endfacet
  facet normal -1 -2.22045e-16 0
    outer loop
      vertex -7.99361e-15 36 0
      vertex -6.66134e-15 30 0
      vertex -7.99361e-15 36 40
    endloop
  endfacet
  facet normal -1 -2.22045e-16 0
    outer loop
      vertex -7.99361e-15 36 40
      vertex -6.66134e-15 30 0
      vertex -6.66134e-15 30 40
    endloop
  endfacet
  facet normal 0 0 -1
    outer loop
      vertex -7.99361e-15 36 0
      vertex 16 36 0
      vertex -6.66134e-15 30 0
    endloop
  endfacet
  facet normal 0 0 -1
    outer loop
      vertex 14.75 27.625 0
      vertex 16 36 0
      vertex 16 12.5 0
    endloop
  endfacet
  facet normal 0 0 -1
    outer loop
      vertex 5.91342 20.3806 0
      vertex 16 12.5 0
      vertex 9 12.5 0
    endloop
  endfacet
  facet normal 0 0 -1
    outer loop
      vertex 4 20 0
      vertex 9 12.5 0
      vertex 9 -12.5 0
    endloop
  endfacet
  facet normal 0 0 -1
    outer loop
      vertex 14.75 -22.375 0
      vertex 16 -12.5 0
      vertex 16 -36 0
    endloop
  endfacet
  facet normal 0 0 -1
    outer loop
      vertex 4 -30 0
      vertex 16 -36 0
      vertex 7.99361e-15 -36 0
    endloop
  endfacet
  facet normal 0 0 -1
    outer loop
      vertex 5.91342 -29.6194 0
      vertex 16 -36 0
      vertex 4 -30 0
    endloop
  endfacet
  facet normal 0 0 -1
    outer loop
      vertex 8.6194 -23.0866 0
      vertex 9 -12.5 0
      vertex 9 -25 0
    endloop
  endfacet
  facet normal 0 0 -1
    outer loop
      vertex 7.53553 -28.5355 0
      vertex 16 -36 0
      vertex 5.91342 -29.6194 0
    endloop
  endfacet
  facet normal 0 0 -1
    outer loop
      vertex 8.6194 -26.9134 0
      vertex 16 -36 0
      vertex 7.53553 -28.5355 0
    endloop
  endfacet
  facet normal 0 0 -1
    outer loop
      vertex 9.5 -27.625 0
      vertex 16 -36 0
      vertex 8.6194 -26.9134 0
    endloop
  endfacet
  facet normal 0 0 -1
    outer loop
      vertex 7.53553 -21.4645 0
      vertex 9 -12.5 0
      vertex 8.6194 -23.0866 0
    endloop
  endfacet
  facet normal 0 0 -1
    outer loop
      vertex 5.91342 -20.3806 0
      vertex 9 -12.5 0
      vertex 7.53553 -21.4645 0
    endloop
  endfacet
  facet normal 0 0 -1
    outer loop
      vertex 4 20 0
      vertex 4 -20 0
      vertex -4.44089e-15 20 0
    endloop
  endfacet
  facet normal 0 0 -1
    outer loop
      vertex 4 20 0
      vertex 9 -12.5 0
      vertex 4 -20 0
    endloop
  endfacet
  facet normal 0 0 -1
    outer loop
      vertex 4 -20 0
      vertex 4.44089e-15 -20 0
      vertex -4.44089e-15 20 0
    endloop
  endfacet
  facet normal 0 0 -1
    outer loop
      vertex 5.91342 20.3806 0
      vertex 9 12.5 0
      vertex 4 20 0
    endloop
  endfacet
  facet normal 0 0 -1
    outer loop
      vertex 7.53553 21.4645 0
      vertex 16 12.5 0
      vertex 5.91342 20.3806 0
    endloop
  endfacet
  facet normal 0 0 -1
    outer loop
      vertex 8.6194 23.0866 0
      vertex 16 12.5 0
      vertex 7.53553 21.4645 0
    endloop
  endfacet
  facet normal 0 0 -1
    outer loop
      vertex 9.5 22.375 0
      vertex 9 25 0
      vertex 9.5 27.625 0
    endloop
  endfacet
  facet normal 0 0 -1
    outer loop
      vertex 9.5 27.625 0
      vertex 16 36 0
      vertex 14.75 27.625 0
    endloop
  endfacet
  facet normal 0 0 -1
    outer loop
      vertex 9.5 22.375 0
      vertex 8.6194 23.0866 0
      vertex 9 25 0
    endloop
  endfacet
  facet normal 0 0 -1
    outer loop
      vertex 7.53553 28.5355 0
      vertex 16 36 0
      vertex 8.6194 26.9134 0
    endloop
  endfacet
  facet normal 0 0 -1
    outer loop
      vertex 5.91342 29.6194 0
      vertex 16 36 0
      vertex 7.53553 28.5355 0
    endloop
  endfacet
  facet normal 0 0 -1
    outer loop
      vertex 4 30 0
      vertex 16 36 0
      vertex 5.91342 29.6194 0
    endloop
  endfacet
  facet normal 0 0 -1
    outer loop
      vertex -6.66134e-15 30 0
      vertex 16 36 0
      vertex 4 30 0
    endloop
  endfacet
  facet normal 0 0 -1
    outer loop
      vertex 14.75 22.375 0
      vertex 14.75 27.625 0
      vertex 16 12.5 0
    endloop
  endfacet
  facet normal 0 0 -1
    outer loop
      vertex 8.6194 26.9134 0
      vertex 16 36 0
      vertex 9.5 27.625 0
    endloop
  endfacet
  facet normal 0 0 -1
    outer loop
      vertex 8.6194 26.9134 0
      vertex 9.5 27.625 0
      vertex 9 25 0
    endloop
  endfacet
  facet normal 0 0 -1
    outer loop
      vertex 9.5 -22.375 0
      vertex 9 -12.5 0
      vertex 14.75 -22.375 0
    endloop
  endfacet
  facet normal 0 0 -1
    outer loop
      vertex 8.6194 23.0866 0
      vertex 9.5 22.375 0
      vertex 16 12.5 0
    endloop
  endfacet
  facet normal 0 0 -1
    outer loop
      vertex 9.5 22.375 0
      vertex 14.75 22.375 0
      vertex 16 12.5 0
    endloop
  endfacet
  facet normal 0 0 -1
    outer loop
      vertex 9 -12.5 0
      vertex 16 -12.5 0
      vertex 14.75 -22.375 0
    endloop
  endfacet
  facet normal 0 0 -1
    outer loop
      vertex 14.75 -27.625 0
      vertex 14.75 -22.375 0
      vertex 16 -36 0
    endloop
  endfacet
  facet normal 0 0 -1
    outer loop
      vertex 9.5 -27.625 0
      vertex 9 -25 0
      vertex 9.5 -22.375 0
    endloop
  endfacet
  facet normal 0 0 -1
    outer loop
      vertex 9 -12.5 0
      vertex 9.5 -22.375 0
      vertex 9 -25 0
    endloop
  endfacet
  facet normal 0 0 -1
    outer loop
      vertex 14.75 -27.625 0
      vertex 16 -36 0
      vertex 9.5 -27.625 0
    endloop
  endfacet
  facet normal 0 0 -1
    outer loop
      vertex 9 -25 0
      vertex 9.5 -27.625 0
      vertex 8.6194 -26.9134 0
    endloop
  endfacet
  facet normal 0 0 -1
    outer loop
      vertex 4 -30 0
      vertex 7.99361e-15 -36 0
      vertex 6.66134e-15 -30 0
    endloop
  endfacet
  facet normal 0 0 -1
    outer loop
      vertex 4 -20 0
      vertex 9 -12.5 0
      vertex 5.91342 -20.3806 0
    endloop
  endfacet
  facet normal 1 2.22045e-16 0
    outer loop
      vertex 16 12.5 0
      vertex 16 36 0
      vertex 16 36 40
    endloop
  endfacet
  facet normal 1 2.22045e-16 0
    outer loop
      vertex 16 12.5 40
      vertex 16 12.5 0
      vertex 16 36 40
    endloop
  endfacet
  facet normal 0 0 1
    outer loop
      vertex 16 36 40
      vertex -7.99361e-15 36 40
      vertex -6.66134e-15 30 40
    endloop
  endfacet
  facet normal 0 0 1
    outer loop
      vertex 5.91342 29.6194 40
      vertex 16 36 40
      vertex 4 30 40
    endloop
  endfacet
  facet normal 0 0 1
    outer loop
      vertex 4 30 40
      vertex 16 36 40
      vertex -6.66134e-15 30 40
    endloop
  endfacet
  facet normal 0 0 1
    outer loop
      vertex 7.53553 28.5355 40
      vertex 16 36 40
      vertex 5.91342 29.6194 40
    endloop
  endfacet
  facet normal 0 0 1
    outer loop
      vertex 8.6194 26.9134 40
      vertex 16 36 40
      vertex 7.53553 28.5355 40
    endloop
  endfacet
  facet normal 0 0 1
    outer loop
      vertex 9.5 27.625 40
      vertex 16 36 40
      vertex 8.6194 26.9134 40
    endloop
  endfacet
  facet normal 0 0 1
    outer loop
      vertex 9.5 27.625 40
      vertex 14.75 27.625 40
      vertex 16 36 40
    endloop
  endfacet
  facet normal 0 0 1
    outer loop
      vertex 4.44089e-15 -20 40
      vertex 8.6194 23.0866 40
      vertex 7.53553 21.4645 40
    endloop
  endfacet
  facet normal 0 0 1
    outer loop
      vertex 4.44089e-15 -20 40
      vertex 7.53553 21.4645 40
      vertex 5.91342 20.3806 40
    endloop
  endfacet
  facet normal 0 0 1
    outer loop
      vertex 4.44089e-15 -20 40
      vertex 5.91342 20.3806 40
      vertex 4 20 40
    endloop
  endfacet
  facet normal 0 0 1
    outer loop
      vertex 4.44089e-15 -20 40
      vertex 4 20 40
      vertex -4.44089e-15 20 40
    endloop
  endfacet
  facet normal 0 0 1
    outer loop
      vertex 14.75 27.625 40
      vertex 14.75 22.375 40
      vertex 16 36 40
    endloop
  endfacet
  facet normal 0 0 1
    outer loop
      vertex 9 12.5 40
      vertex 16 12.5 40
      vertex 14.75 22.375 40
    endloop
  endfacet
  facet normal 0 0 1
    outer loop
      vertex 9.5 22.375 40
      vertex 9.5 27.625 40
      vertex 9 25 40
    endloop
  endfacet
  facet normal 0 0 1
    outer loop
      vertex 9.5 -27.625 40
      vertex 9 -25 40
      vertex 8.6194 -26.9134 40
    endloop
  endfacet
  facet normal 0 0 1
    outer loop
      vertex 16 -36 40
      vertex 8.6194 -26.9134 40
      vertex 7.53553 -28.5355 40
    endloop
  endfacet
  facet normal 0 0 1
    outer loop
      vertex 7.99361e-15 -36 40
      vertex 7.53553 -28.5355 40
      vertex 5.91342 -29.6194 40
    endloop
  endfacet
  facet normal 0 0 1
    outer loop
      vertex 7.99361e-15 -36 40
      vertex 5.91342 -29.6194 40
      vertex 4 -30 40
    endloop
  endfacet
  facet normal 0 0 1
    outer loop
      vertex 7.99361e-15 -36 40
      vertex 4 -30 40
      vertex 6.66134e-15 -30 40
    endloop
  endfacet
  facet normal 0 0 1
    outer loop
      vertex 16 -36 40
      vertex 7.53553 -28.5355 40
      vertex 7.99361e-15 -36 40
    endloop
  endfacet
  facet normal 0 0 1
    outer loop
      vertex 14.75 -27.625 40
      vertex 9.5 -27.625 40
      vertex 16 -36 40
    endloop
  endfacet
  facet normal 0 0 1
    outer loop
      vertex 8.6194 -23.0866 40
      vertex 9 -12.5 40
      vertex 7.53553 -21.4645 40
    endloop
  endfacet
  facet normal 0 0 1
    outer loop
      vertex 4.44089e-15 -20 40
      vertex 9 12.5 40
      vertex 8.6194 23.0866 40
    endloop
  endfacet
  facet normal 0 0 1
    outer loop
      vertex 9 -12.5 40
      vertex 4 -20 40
      vertex 5.91342 -20.3806 40
    endloop
  endfacet
  facet normal 0 0 1
    outer loop
      vertex 9 25 40
      vertex 9.5 27.625 40
      vertex 8.6194 26.9134 40
    endloop
  endfacet
  facet normal 0 0 1
    outer loop
      vertex 9.5 -22.375 40
      vertex 14.75 -22.375 40
      vertex 16 -12.5 40
    endloop
  endfacet
  facet normal 0 0 1
    outer loop
      vertex 9.5 -27.625 40
      vertex 9.5 -22.375 40
      vertex 9 -25 40
    endloop
  endfacet
  facet normal 0 0 1
    outer loop
      vertex 9 -12.5 40
      vertex 5.91342 -20.3806 40
      vertex 7.53553 -21.4645 40
    endloop
  endfacet
  facet normal 0 0 1
    outer loop
      vertex 16 12.5 40
      vertex 16 36 40
      vertex 14.75 22.375 40
    endloop
  endfacet
  facet normal 0 0 1
    outer loop
      vertex 9 12.5 40
      vertex 9.5 22.375 40
      vertex 8.6194 23.0866 40
    endloop
  endfacet
  facet normal 0 0 1
    outer loop
      vertex 14.75 22.375 40
      vertex 9.5 22.375 40
      vertex 9 12.5 40
    endloop
  endfacet
  facet normal 0 0 1
    outer loop
      vertex 9 -12.5 40
      vertex 4.44089e-15 -20 40
      vertex 4 -20 40
    endloop
  endfacet
  facet normal 0 0 1
    outer loop
      vertex 16 -36 40
      vertex 16 -12.5 40
      vertex 14.75 -22.375 40
    endloop
  endfacet
  facet normal 0 0 1
    outer loop
      vertex 16 -36 40
      vertex 14.75 -22.375 40
      vertex 14.75 -27.625 40
    endloop
  endfacet
  facet normal 0 0 1
    outer loop
      vertex 16 -36 40
      vertex 9.5 -27.625 40
      vertex 8.6194 -26.9134 40
    endloop
  endfacet
  facet normal 0 0 1
    outer loop
      vertex 9.5 22.375 40
      vertex 9 25 40
      vertex 8.6194 23.0866 40
    endloop
  endfacet
  facet normal 0 0 1
    outer loop
      vertex 9.5 -22.375 40
      vertex 8.6194 -23.0866 40
      vertex 9 -25 40
    endloop
  endfacet
  facet normal 0 0 1
    outer loop
      vertex 16 -12.5 40
      vertex 8.6194 -23.0866 40
      vertex 9.5 -22.375 40
    endloop
  endfacet
  facet normal 0 0 1
    outer loop
      vertex 16 -12.5 40
      vertex 9 -12.5 40
      vertex 8.6194 -23.0866 40
    endloop
  endfacet
  facet normal 0 0 1
    outer loop
      vertex 9 -12.5 40
      vertex 9 12.5 40
      vertex 4.44089e-15 -20 40
    endloop
  endfacet
  facet normal 2.22045e-16 -1 0
    outer loop
      vertex 4 30 0
      vertex 4 30 40
      vertex -6.66134e-15 30 40
    endloop
  endfacet
  facet normal 2.22045e-16 -1 0
    outer loop
      vertex -6.66134e-15 30 0
      vertex 4 30 0
      vertex -6.66134e-15 30 40
    endloop
  endfacet
  facet normal -0.19509 -0.980785 0
    outer loop
      vertex 5.91342 29.6194 0
      vertex 5.91342 29.6194 40
      vertex 4 30 40
    endloop
  endfacet
  facet normal -0.19509 -0.980785 0
    outer loop
      vertex 4 30 0
      vertex 5.91342 29.6194 0
      vertex 4 30 40
    endloop
  endfacet
  facet normal -0.55557 -0.83147 0
    outer loop
      vertex 7.53553 28.5355 0
      vertex 7.53553 28.5355 40
      vertex 5.91342 29.6194 40
    endloop
  endfacet
  facet normal -0.55557 -0.83147 0
    outer loop
      vertex 5.91342 29.6194 0
      vertex 7.53553 28.5355 0
      vertex 5.91342 29.6194 40
    endloop
  endfacet
  facet normal -0.83147 -0.55557 0
    outer loop
      vertex 8.6194 26.9134 40
      vertex 7.53553 28.5355 40
      vertex 8.6194 26.9134 0
    endloop
  endfacet
  facet normal -0.83147 -0.55557 0
    outer loop
      vertex 8.6194 26.9134 0
      vertex 7.53553 28.5355 40
      vertex 7.53553 28.5355 0
    endloop
  endfacet
  facet normal -0.980785 -0.19509 0
    outer loop
      vertex 9 25 40
      vertex 8.6194 26.9134 40
      vertex 9 25 0
    endloop
  endfacet
  facet normal -0.980785 -0.19509 0
    outer loop
      vertex 9 25 0
      vertex 8.6194 26.9134 40
      vertex 8.6194 26.9134 0
    endloop
  endfacet
  facet normal -0.980785 0.19509 0
    outer loop
      vertex 8.6194 23.0866 40
      vertex 9 25 40
      vertex 8.6194 23.0866 0
    endloop
  endfacet
  facet normal -0.980785 0.19509 0
    outer loop
      vertex 8.6194 23.0866 0
      vertex 9 25 40
      vertex 9 25 0
    endloop
  endfacet
  facet normal -0.83147 0.55557 0
    outer loop
      vertex 7.53553 21.4645 40
      vertex 8.6194 23.0866 40
      vertex 7.53553 21.4645 0
    endloop
  endfacet
  facet normal -0.83147 0.55557 0
    outer loop
      vertex 7.53553 21.4645 0
      vertex 8.6194 23.0866 40
      vertex 8.6194 23.0866 0
    endloop
  endfacet
  facet normal -0.55557 0.83147 0
    outer loop
      vertex 5.91342 20.3806 40
      vertex 7.53553 21.4645 40
      vertex 5.91342 20.3806 0
    endloop
  endfacet
  facet normal -0.55557 0.83147 0
    outer loop
      vertex 5.91342 20.3806 0
      vertex 7.53553 21.4645 40
      vertex 7.53553 21.4645 0
    endloop
  endfacet
  facet normal -0.19509 0.980785 0
    outer loop
      vertex 4 20 40
      vertex 5.91342 20.3806 40
      vertex 4 20 0
    endloop
  endfacet
  facet normal -0.19509 0.980785 0
    outer loop
      vertex 4 20 0
      vertex 5.91342 20.3806 40
      vertex 5.91342 20.3806 0
    endloop
  endfacet
  facet normal -2.22045e-16 1 0
    outer loop
      vertex 4 20 40
      vertex 4 20 0
      vertex -4.44089e-15 20 40
    endloop
  endfacet
  facet normal -2.22045e-16 1 0
    outer loop
      vertex -4.44089e-15 20 40
      vertex 4 20 0
      vertex -4.44089e-15 20 0
    endloop
  endfacet
  facet normal -1 -2.22045e-16 0
    outer loop
      vertex 7.86443e-16 -3.54182 21.8589
      vertex 4.44089e-15 -20 0
      vertex 4.44089e-15 -20 40
    endloop
  endfacet
  facet normal -1 -2.22045e-16 0
    outer loop
      vertex -4.44089e-15 20 0
      vertex 4.44089e-15 -20 0
      vertex -8.6237e-16 3.88377 20
    endloop
  endfacet
  facet normal -1 -2.22045e-16 0
    outer loop
      vertex -4.44089e-15 20 0
      vertex -8.6237e-16 3.88377 20
      vertex -4.44089e-15 20 40
    endloop
  endfacet
  facet normal -1 -2.22045e-16 0
    outer loop
      vertex 8.88178e-16 -4 20
      vertex 4.44089e-15 -20 0
      vertex 7.86443e-16 -3.54182 21.8589
    endloop
  endfacet
  facet normal -1 -2.22045e-16 0
    outer loop
      vertex -8.6237e-16 3.88377 20
      vertex -8.6237e-16 3.88377 20.9573
      vertex -4.44089e-15 20 40
    endloop
  endfacet
  facet normal -1 -2.22045e-16 0
    outer loop
      vertex -8.6237e-16 3.88377 20.9573
      vertex -6.64811e-16 2.99404 22.6525
      vertex -4.44089e-15 20 40
    endloop
  endfacet
  facet normal -1 -2.22045e-16 0
    outer loop
      vertex -4.44089e-15 20 40
      vertex -3.14953e-16 1.41842 23.7401
      vertex 4.44089e-15 -20 40
    endloop
  endfacet
  facet normal -1 -2.22045e-16 0
    outer loop
      vertex -3.14953e-16 1.41842 23.7401
      vertex 1.07058e-16 -0.482147 23.9708
      vertex 4.44089e-15 -20 40
    endloop
  endfacet
  facet normal -1 -2.22045e-16 0
    outer loop
      vertex 1.07058e-16 -0.482147 23.9708
      vertex 5.04543e-16 -2.27226 23.2919
      vertex 4.44089e-15 -20 40
    endloop
  endfacet
  facet normal -1 -2.22045e-16 0
    outer loop
      vertex 5.04543e-16 -2.27226 23.2919
      vertex 7.86443e-16 -3.54182 21.8589
      vertex 4.44089e-15 -20 40
    endloop
  endfacet
  facet normal -1 -2.22045e-16 0
    outer loop
      vertex -8.6237e-16 3.88377 20
      vertex 4.44089e-15 -20 0
      vertex 8.88178e-16 -4 20
    endloop
  endfacet
  facet normal -1 -2.22045e-16 0
    outer loop
      vertex -3.14953e-16 1.41842 23.7401
      vertex -4.44089e-15 20 40
      vertex -6.64811e-16 2.99404 22.6525
    endloop
  endfacet
  facet normal 2.22045e-16 -1 0
    outer loop
      vertex 4 -20 0
      vertex 4 -20 40
      vertex 4.44089e-15 -20 40
    endloop
  endfacet
  facet normal 2.22045e-16 -1 0
    outer loop
      vertex 4.44089e-15 -20 0
      vertex 4 -20 0
      vertex 4.44089e-15 -20 40
    endloop
  endfacet
  facet normal -0.19509 -0.980785 0
    outer loop
      vertex 5.91342 -20.3806 0
      vertex 5.91342 -20.3806 40
      vertex 4 -20 40
    endloop
  endfacet
  facet normal -0.19509 -0.980785 0
    outer loop
      vertex 4 -20 0
      vertex 5.91342 -20.3806 0
      vertex 4 -20 40
    endloop
  endfacet
  facet normal -0.55557 -0.83147 0
    outer loop
      vertex 7.53553 -21.4645 0
      vertex 7.53553 -21.4645 40
      vertex 5.91342 -20.3806 40
    endloop
  endfacet
  facet normal -0.55557 -0.83147 0
    outer loop
      vertex 5.91342 -20.3806 0
      vertex 7.53553 -21.4645 0
      vertex 5.91342 -20.3806 40
    endloop
  endfacet
  facet normal -0.83147 -0.55557 0
    outer loop
      vertex 8.6194 -23.0866 40
      vertex 7.53553 -21.4645 40
      vertex 8.6194 -23.0866 0
    endloop
  endfacet
  facet normal -0.83147 -0.55557 0
    outer loop
      vertex 8.6194 -23.0866 0
      vertex 7.53553 -21.4645 40
      vertex 7.53553 -21.4645 0
    endloop
  endfacet
  facet normal -0.980785 -0.19509 0
    outer loop
      vertex 9 -25 40
      vertex 8.6194 -23.0866 40
      vertex 9 -25 0
    endloop
  endfacet
  facet normal -0.980785 -0.19509 0
    outer loop
      vertex 9 -25 0
      vertex 8.6194 -23.0866 40
      vertex 8.6194 -23.0866 0
    endloop
  endfacet
  facet normal -0.980785 0.19509 0
    outer loop
      vertex 8.6194 -26.9134 40
      vertex 9 -25 40
      vertex 8.6194 -26.9134 0
    endloop
  endfacet
  facet normal -0.980785 0.19509 0
    outer loop
      vertex 8.6194 -26.9134 0
      vertex 9 -25 40
      vertex 9 -25 0
    endloop
  endfacet
  facet normal -0.83147 0.55557 0
    outer loop
      vertex 7.53553 -28.5355 40
      vertex 8.6194 -26.9134 40
      vertex 7.53553 -28.5355 0
    endloop
  endfacet
  facet normal -0.83147 0.55557 0
    outer loop
      vertex 7.53553 -28.5355 0
      vertex 8.6194 -26.9134 40
      vertex 8.6194 -26.9134 0
    endloop
  endfacet
  facet normal -0.55557 0.83147 0
    outer loop
      vertex 5.91342 -29.6194 40
      vertex 7.53553 -28.5355 40
      vertex 5.91342 -29.6194 0
    endloop
  endfacet
  facet normal -0.55557 0.83147 0
    outer loop
      vertex 5.91342 -29.6194 0
      vertex 7.53553 -28.5355 40
      vertex 7.53553 -28.5355 0
    endloop
  endfacet
  facet normal -0.19509 0.980785 0
    outer loop
      vertex 4 -30 40
      vertex 5.91342 -29.6194 40
      vertex 4 -30 0
    endloop
  endfacet
  facet normal -0.19509 0.980785 0
    outer loop
      vertex 4 -30 0
      vertex 5.91342 -29.6194 40
      vertex 5.91342 -29.6194 0
    endloop
  endfacet
  facet normal -2.22045e-16 1 0
    outer loop
      vertex 4 -30 40
      vertex 4 -30 0
      vertex 6.66134e-15 -30 40
    endloop
  endfacet
  facet normal -2.22045e-16 1 0
    outer loop
      vertex 6.66134e-15 -30 40
      vertex 4 -30 0
      vertex 6.66134e-15 -30 0
    endloop
  endfacet
  facet normal -1 -2.22045e-16 0
    outer loop
      vertex 6.66134e-15 -30 0
      vertex 7.99361e-15 -36 0
      vertex 6.66134e-15 -30 40
    endloop
  endfacet
  facet normal -1 -2.22045e-16 0
    outer loop
      vertex 6.66134e-15 -30 40
      vertex 7.99361e-15 -36 0
      vertex 7.99361e-15 -36 40
    endloop
  endfacet
  facet normal 2.22045e-16 -1 0
    outer loop
      vertex 7.99361e-15 -36 40
      vertex 7.99361e-15 -36 0
      vertex 16 -36 0
    endloop
  endfacet
  facet normal 2.22045e-16 -1 0
    outer loop
      vertex 16 -36 40
      vertex 7.99361e-15 -36 40
      vertex 16 -36 0
    endloop
  endfacet
  facet normal 1 2.22045e-16 0
    outer loop
      vertex 16 -36 0
      vertex 16 -12.5 0
      vertex 16 -12.5 40
    endloop
  endfacet
  facet normal 1 2.22045e-16 0
    outer loop
      vertex 16 -36 40
      vertex 16 -36 0
      vertex 16 -12.5 40
    endloop
  endfacet
  facet normal -2.22045e-16 1 0
    outer loop
      vertex 16 -12.5 40
      vertex 16 -12.5 0
      vertex 9 -12.5 40
    endloop
  endfacet
  facet normal -2.22045e-16 1 0
    outer loop
      vertex 9 -12.5 40
      vertex 16 -12.5 0
      vertex 9 -12.5 0
    endloop
  endfacet
  facet normal 1 2.22045e-16 0
    outer loop
      vertex 9 -4.52701 18.1249
      vertex 9 -12.5 40
      vertex 9 -12.5 0
    endloop
  endfacet
  facet normal 1 2.22045e-16 0
    outer loop
      vertex 9 -4.9 20
      vertex 9 -4.52701 21.8751
      vertex 9 -12.5 40
    endloop
  endfacet
  facet normal 1 2.22045e-16 0
    outer loop
      vertex 9 -1.87515 15.473
      vertex 9 -3.46482 16.5352
      vertex 9 -12.5 0
    endloop
  endfacet
  facet normal 1 2.22045e-16 0
    outer loop
      vertex 9 12.5 0
      vertex 9 12.5 40
      vertex 9 4.52701 18.1249
    endloop
  endfacet
  facet normal 1 2.22045e-16 0
    outer loop
      vertex 9 12.5 0
      vertex 9 3.46482 16.5352
      vertex 9 -12.5 0
    endloop
  endfacet
  facet normal 1 2.22045e-16 0
    outer loop
      vertex 9 12.5 0
      vertex 9 4.52701 18.1249
      vertex 9 3.46482 16.5352
    endloop
  endfacet
  facet normal 1 2.22045e-16 0
    outer loop
      vertex 9 3.46482 23.4648
      vertex 9 4.52701 21.8751
      vertex 9 12.5 40
    endloop
  endfacet
  facet normal 1 2.22045e-16 0
    outer loop
      vertex 9 1.87515 15.473
      vertex 9 1.9984e-15 15.1
      vertex 9 -12.5 0
    endloop
  endfacet
  facet normal 1 2.22045e-16 0
    outer loop
      vertex 9 1.9984e-15 15.1
      vertex 9 -1.87515 15.473
      vertex 9 -12.5 0
    endloop
  endfacet
  facet normal 1 2.22045e-16 0
    outer loop
      vertex 9 -3.46482 16.5352
      vertex 9 -4.52701 18.1249
      vertex 9 -12.5 0
    endloop
  endfacet
  facet normal 1 2.22045e-16 0
    outer loop
      vertex 9 -4.9 20
      vertex 9 -12.5 40
      vertex 9 -4.52701 18.1249
    endloop
  endfacet
  facet normal 1 2.22045e-16 0
    outer loop
      vertex 9 -3.46482 23.4648
      vertex 9 -1.87515 24.527
      vertex 9 12.5 40
    endloop
  endfacet
  facet normal 1 2.22045e-16 0
    outer loop
      vertex 9 -3.46482 23.4648
      vertex 9 -12.5 40
      vertex 9 -4.52701 21.8751
    endloop
  endfacet
  facet normal 1 2.22045e-16 0
    outer loop
      vertex 9 12.5 40
      vertex 9 -12.5 40
      vertex 9 -3.46482 23.4648
    endloop
  endfacet
  facet normal 1 2.22045e-16 0
    outer loop
      vertex 9 12.5 40
      vertex 9 -1.87515 24.527
      vertex 9 1.9984e-15 24.9
    endloop
  endfacet
  facet normal 1 2.22045e-16 0
    outer loop
      vertex 9 12.5 40
      vertex 9 1.9984e-15 24.9
      vertex 9 1.87515 24.527
    endloop
  endfacet
  facet normal 1 2.22045e-16 0
    outer loop
      vertex 9 4.52701 21.8751
      vertex 9 4.9 20
      vertex 9 12.5 40
    endloop
  endfacet
  facet normal 1 2.22045e-16 0
    outer loop
      vertex 9 4.52701 18.1249
      vertex 9 12.5 40
      vertex 9 4.9 20
    endloop
  endfacet
  facet normal 1 2.22045e-16 0
    outer loop
      vertex 9 3.46482 16.5352
      vertex 9 1.87515 15.473
      vertex 9 -12.5 0
    endloop
  endfacet
  facet normal 1 2.22045e-16 0
    outer loop
      vertex 9 1.87515 24.527
      vertex 9 3.46482 23.4648
      vertex 9 12.5 40
    endloop
  endfacet
  facet normal 2.22045e-16 -1 0
    outer loop
      vertex 16 12.5 0
      vertex 16 12.5 40
      vertex 9 12.5 40
    endloop
  endfacet
  facet normal 2.22045e-16 -1 0
    outer loop
      vertex 9 12.5 0
      vertex 16 12.5 0
      vertex 9 12.5 40
    endloop
  endfacet
  facet normal 2.22045e-16 -1 0
    outer loop
      vertex 14.75 27.625 0
      vertex 14.75 27.625 40
      vertex 9.5 27.625 40
    endloop
  endfacet
  facet normal 2.22045e-16 -1 0
    outer loop
      vertex 9.5 27.625 0
      vertex 14.75 27.625 0
      vertex 9.5 27.625 40
    endloop
  endfacet
  facet normal -1 -2.22045e-16 0
    outer loop
      vertex 14.75 22.375 40
      vertex 14.75 27.625 40
      vertex 14.75 22.375 0
    endloop
  endfacet
  facet normal -1 -2.22045e-16 0
    outer loop
      vertex 14.75 22.375 0
      vertex 14.75 27.625 40
      vertex 14.75 27.625 0
    endloop
  endfacet
  facet normal -2.22045e-16 1 0
    outer loop
      vertex 14.75 22.375 40
      vertex 14.75 22.375 0
      vertex 9.5 22.375 40
    endloop
  endfacet
  facet normal -2.22045e-16 1 0
    outer loop
      vertex 9.5 22.375 40
      vertex 14.75 22.375 0
      vertex 9.5 22.375 0
    endloop
  endfacet
  facet normal 1 2.22045e-16 0
    outer loop
      vertex 9.5 27.625 40
      vertex 9.5 22.375 40
      vertex 9.5 22.375 0
    endloop
  endfacet
  facet normal 1 2.22045e-16 0
    outer loop
      vertex 9.5 27.625 0
      vertex 9.5 27.625 40
      vertex 9.5 22.375 0
    endloop
  endfacet
  facet normal 2.22045e-16 -1 0
    outer loop
      vertex 14.75 -22.375 0
      vertex 14.75 -22.375 40
      vertex 9.5 -22.375 40
    endloop
  endfacet
  facet normal 2.22045e-16 -1 0
    outer loop
      vertex 9.5 -22.375 0
      vertex 14.75 -22.375 0
      vertex 9.5 -22.375 40
    endloop
  endfacet
  facet normal -1 -2.22045e-16 0
    outer loop
      vertex 14.75 -27.625 40
      vertex 14.75 -22.375 40
      vertex 14.75 -27.625 0
    endloop
  endfacet
  facet normal -1 -2.22045e-16 0
    outer loop
      vertex 14.75 -27.625 0
      vertex 14.75 -22.375 40
      vertex 14.75 -22.375 0
    endloop
  endfacet
  facet normal -2.22045e-16 1 0
    outer loop
      vertex 14.75 -27.625 40
      vertex 14.75 -27.625 0
      vertex 9.5 -27.625 40
    endloop
  endfacet
  facet normal -2.22045e-16 1 0
    outer loop
      vertex 9.5 -27.625 40
      vertex 14.75 -27.625 0
      vertex 9.5 -27.625 0
    endloop
  endfacet
  facet normal 1 2.22045e-16 0
    outer loop
      vertex 9.5 -22.375 40
      vertex 9.5 -27.625 40
      vertex 9.5 -27.625 0
    endloop
  endfacet
  facet normal 1 2.22045e-16 0
    outer loop
      vertex 9.5 -22.375 0
      vertex 9.5 -22.375 40
      vertex 9.5 -27.625 0
    endloop
  endfacet
  facet normal 1 2.22045e-16 2.22045e-16
    outer loop
      vertex 8.88178e-16 -4 20
      vertex 1.1992e-15 -3.54182 18.1411
      vertex 1.2355e-15 -2.27226 16.7081
    endloop
  endfacet
  facet normal 1 2.22045e-16 2.22045e-16
    outer loop
      vertex 5.15509e-16 1.41842 16.2599
      vertex 8.88178e-16 -4 20
      vertex 9.88761e-16 -0.482147 16.0292
    endloop
  endfacet
  facet normal 1 2.22045e-16 2.22045e-16
    outer loop
      vertex 9.88761e-16 -0.482147 16.0292
      vertex 8.88178e-16 -4 20
      vertex 1.2355e-15 -2.27226 16.7081
    endloop
  endfacet
  facet normal 1 2.22045e-16 2.22045e-16
    outer loop
      vertex -7.58398e-17 2.99404 17.3475
      vertex 8.88178e-16 -4 20
      vertex 5.15509e-16 1.41842 16.2599
    endloop
  endfacet
  facet normal 1 2.22045e-16 2.22045e-16
    outer loop
      vertex -6.49814e-16 3.88377 19.0427
      vertex 8.88178e-16 -4 20
      vertex -7.58398e-17 2.99404 17.3475
    endloop
  endfacet
  facet normal 1 2.22045e-16 2.22045e-16
    outer loop
      vertex -8.6237e-16 3.88377 20
      vertex 8.88178e-16 -4 20
      vertex -6.49814e-16 3.88377 19.0427
    endloop
  endfacet
  facet normal 0.0161802 -0.999869 3.59273e-18
    outer loop
      vertex -8.6237e-16 3.88377 20.9573
      vertex -8.6237e-16 3.88377 20
      vertex -6.49814e-16 3.88377 19.0427
    endloop
  endfacet
  facet normal 0.0161802 -0.999869 3.59273e-18
    outer loop
      vertex 2.995 3.93223 20.9692
      vertex -8.6237e-16 3.88377 20.9573
      vertex 2.995 3.93223 19.0308
    endloop
  endfacet
  facet normal 0.0161802 -0.999869 3.59273e-18
    outer loop
      vertex 2.995 3.93223 19.0308
      vertex -8.6237e-16 3.88377 20.9573
      vertex -6.49814e-16 3.88377 19.0427
    endloop
  endfacet
  facet normal 0.0161803 0.970815 -0.239284
    outer loop
      vertex 2.995 -3.58679 21.879
      vertex 8.88178e-16 -4 20
      vertex 2.995 -3.58602 21.8821
    endloop
  endfacet
  facet normal 0.0161803 0.970815 -0.239284
    outer loop
      vertex 2.995 -3.58602 21.8821
      vertex 8.88178e-16 -4 20
      vertex 7.86443e-16 -3.54182 21.8589
    endloop
  endfacet
  facet normal 0.0161802 0.970815 0.239284
    outer loop
      vertex 2.995 -4.04992 20
      vertex 2.995 -4.04915 19.9969
      vertex 8.88178e-16 -4 20
    endloop
  endfacet
  facet normal 0.0161802 0.970815 0.239284
    outer loop
      vertex 8.88178e-16 -4 20
      vertex 2.995 -4.04915 19.9969
      vertex 1.1992e-15 -3.54182 18.1411
    endloop
  endfacet
  facet normal 0.0161802 0.970815 -0.239284
    outer loop
      vertex 2.995 -4.04992 20
      vertex 8.88178e-16 -4 20
      vertex 2.995 -3.58679 21.879
    endloop
  endfacet
  facet normal 0.0161803 0.748413 -0.663036
    outer loop
      vertex 2.995 -3.58602 21.8821
      vertex 7.86443e-16 -3.54182 21.8589
      vertex 2.995 -2.30273 23.3306
    endloop
  endfacet
  facet normal 0.0161804 0.748413 -0.663036
    outer loop
      vertex 2.995 -2.30273 23.3306
      vertex 7.86443e-16 -3.54182 21.8589
      vertex 2.995 -2.30061 23.333
    endloop
  endfacet
  facet normal 0.0161804 0.748413 -0.663036
    outer loop
      vertex 2.995 -2.30061 23.333
      vertex 7.86443e-16 -3.54182 21.8589
      vertex 5.04543e-16 -2.27226 23.2919
    endloop
  endfacet
  facet normal 0.0161805 0.354558 -0.934894
    outer loop
      vertex 2.995 -2.30061 23.333
      vertex 5.04543e-16 -2.27226 23.2919
      vertex 2.995 -0.491147 24.0193
    endloop
  endfacet
  facet normal 0.0161804 0.354558 -0.934894
    outer loop
      vertex 2.995 -0.491147 24.0193
      vertex 5.04543e-16 -2.27226 23.2919
      vertex 2.995 -0.488164 24.0204
    endloop
  endfacet
  facet normal 0.0161804 0.354558 -0.934894
    outer loop
      vertex 2.995 -0.488164 24.0204
      vertex 5.04543e-16 -2.27226 23.2919
      vertex 1.07058e-16 -0.482147 23.9708
    endloop
  endfacet
  facet normal 0.0161804 -0.120521 -0.992579
    outer loop
      vertex 2.995 -0.488164 24.0204
      vertex 1.07058e-16 -0.482147 23.9708
      vertex 2.995 1.43295 23.7871
    endloop
  endfacet
  facet normal 0.0161803 -0.120521 -0.992579
    outer loop
      vertex 1.07058e-16 -0.482147 23.9708
      vertex -3.14953e-16 1.41842 23.7401
      vertex 2.995 1.43295 23.7871
    endloop
  endfacet
  facet normal 0.0161803 -0.120521 -0.992579
    outer loop
      vertex 2.995 1.43295 23.7871
      vertex -3.14953e-16 1.41842 23.7401
      vertex 2.995 1.43612 23.7867
    endloop
  endfacet
  facet normal 0.0161803 -0.56799 -0.822876
    outer loop
      vertex 2.995 1.43612 23.7867
      vertex -3.14953e-16 1.41842 23.7401
      vertex 2.995 3.02878 22.6874
    endloop
  endfacet
  facet normal 0.0161803 -0.56799 -0.822876
    outer loop
      vertex -3.14953e-16 1.41842 23.7401
      vertex -6.64811e-16 2.99404 22.6525
      vertex 2.995 3.02878 22.6874
    endloop
  endfacet
  facet normal 0.0161803 -0.56799 -0.822876
    outer loop
      vertex 2.995 3.02878 22.6874
      vertex -6.64811e-16 2.99404 22.6525
      vertex 2.995 3.03141 22.6856
    endloop
  endfacet
  facet normal 0.0161804 -0.88534 -0.464662
    outer loop
      vertex 2.995 3.93075 20.972
      vertex 2.995 3.03141 22.6856
      vertex -6.64811e-16 2.99404 22.6525
    endloop
  endfacet
  facet normal 0.0161801 -0.88534 -0.464662
    outer loop
      vertex 2.995 3.93075 20.972
      vertex -6.64811e-16 2.99404 22.6525
      vertex -8.6237e-16 3.88377 20.9573
    endloop
  endfacet
  facet normal 0.0161801 -0.88534 -0.464662
    outer loop
      vertex 2.995 3.93223 20.9692
      vertex 2.995 3.93075 20.972
      vertex -8.6237e-16 3.88377 20.9573
    endloop
  endfacet
  facet normal 6.12619e-17 -0.831469 0.555571
    outer loop
      vertex 2.995 3.46482 16.5352
      vertex 9 3.46482 16.5352
      vertex 9 4.52701 18.1249
    endloop
  endfacet
  facet normal 6.12619e-17 -0.831469 0.555571
    outer loop
      vertex 2.995 4.52701 18.1249
      vertex 2.995 3.46482 16.5352
      vertex 9 4.52701 18.1249
    endloop
  endfacet
  facet normal 1.74459e-16 -0.980785 0.19509
    outer loop
      vertex 2.995 4.52701 18.1249
      vertex 9 4.52701 18.1249
      vertex 9 4.9 20
    endloop
  endfacet
  facet normal 1.74459e-16 -0.980785 0.19509
    outer loop
      vertex 2.995 4.9 20
      vertex 2.995 4.52701 18.1249
      vertex 9 4.9 20
    endloop
  endfacet
  facet normal 2.61097e-16 -0.980785 -0.19509
    outer loop
      vertex 9 4.9 20
      vertex 9 4.52701 21.8751
      vertex 2.995 4.52701 21.8751
    endloop
  endfacet
  facet normal 2.61097e-16 -0.980785 -0.19509
    outer loop
      vertex 2.995 4.9 20
      vertex 9 4.9 20
      vertex 2.995 4.52701 21.8751
    endloop
  endfacet
  facet normal 3.07985e-16 -0.831469 -0.555571
    outer loop
      vertex 9 4.52701 21.8751
      vertex 9 3.46482 23.4648
      vertex 2.995 3.46482 23.4648
    endloop
  endfacet
  facet normal 3.07985e-16 -0.831469 -0.555571
    outer loop
      vertex 2.995 4.52701 21.8751
      vertex 9 4.52701 21.8751
      vertex 2.995 3.46482 23.4648
    endloop
  endfacet
  facet normal 3.07985e-16 -0.555571 -0.831469
    outer loop
      vertex 9 1.87515 24.527
      vertex 2.995 1.87515 24.527
      vertex 9 3.46482 23.4648
    endloop
  endfacet
  facet normal 3.07985e-16 -0.555571 -0.831469
    outer loop
      vertex 9 3.46482 23.4648
      vertex 2.995 1.87515 24.527
      vertex 2.995 3.46482 23.4648
    endloop
  endfacet
  facet normal 2.61097e-16 -0.19509 -0.980785
    outer loop
      vertex 9 1.9984e-15 24.9
      vertex 2.995 6.65024e-16 24.9
      vertex 9 1.87515 24.527
    endloop
  endfacet
  facet normal 2.61097e-16 -0.19509 -0.980785
    outer loop
      vertex 9 1.87515 24.527
      vertex 2.995 6.65024e-16 24.9
      vertex 2.995 1.87515 24.527
    endloop
  endfacet
  facet normal 1.74459e-16 0.19509 -0.980785
    outer loop
      vertex 9 -1.87515 24.527
      vertex 2.995 -1.87515 24.527
      vertex 9 1.9984e-15 24.9
    endloop
  endfacet
  facet normal 1.74459e-16 0.19509 -0.980785
    outer loop
      vertex 9 1.9984e-15 24.9
      vertex 2.995 -1.87515 24.527
      vertex 2.995 6.65024e-16 24.9
    endloop
  endfacet
  facet normal 6.12619e-17 0.555571 -0.831469
    outer loop
      vertex 9 -3.46482 23.4648
      vertex 2.995 -3.46482 23.4648
      vertex 9 -1.87515 24.527
    endloop
  endfacet
  facet normal 6.12619e-17 0.555571 -0.831469
    outer loop
      vertex 9 -1.87515 24.527
      vertex 2.995 -3.46482 23.4648
      vertex 2.995 -1.87515 24.527
    endloop
  endfacet
  facet normal -6.12619e-17 0.831469 -0.555571
    outer loop
      vertex 9 -4.52701 21.8751
      vertex 2.995 -4.52701 21.8751
      vertex 9 -3.46482 23.4648
    endloop
  endfacet
  facet normal -6.12619e-17 0.831469 -0.555571
    outer loop
      vertex 9 -3.46482 23.4648
      vertex 2.995 -4.52701 21.8751
      vertex 2.995 -3.46482 23.4648
    endloop
  endfacet
  facet normal -1.74459e-16 0.980785 -0.19509
    outer loop
      vertex 9 -4.9 20
      vertex 2.995 -4.9 20
      vertex 9 -4.52701 21.8751
    endloop
  endfacet
  facet normal -1.74459e-16 0.980785 -0.19509
    outer loop
      vertex 9 -4.52701 21.8751
      vertex 2.995 -4.9 20
      vertex 2.995 -4.52701 21.8751
    endloop
  endfacet
  facet normal -2.61097e-16 0.980785 0.19509
    outer loop
      vertex 9 -4.9 20
      vertex 9 -4.52701 18.1249
      vertex 2.995 -4.9 20
    endloop
  endfacet
  facet normal -2.61097e-16 0.980785 0.19509
    outer loop
      vertex 2.995 -4.9 20
      vertex 9 -4.52701 18.1249
      vertex 2.995 -4.52701 18.1249
    endloop
  endfacet
  facet normal -3.07985e-16 0.831469 0.555571
    outer loop
      vertex 9 -4.52701 18.1249
      vertex 9 -3.46482 16.5352
      vertex 2.995 -4.52701 18.1249
    endloop
  endfacet
  facet normal -3.07985e-16 0.831469 0.555571
    outer loop
      vertex 2.995 -4.52701 18.1249
      vertex 9 -3.46482 16.5352
      vertex 2.995 -3.46482 16.5352
    endloop
  endfacet
  facet normal -3.07985e-16 0.555571 0.831469
    outer loop
      vertex 2.995 -3.46482 16.5352
      vertex 9 -3.46482 16.5352
      vertex 9 -1.87515 15.473
    endloop
  endfacet
  facet normal -3.07985e-16 0.555571 0.831469
    outer loop
      vertex 2.995 -1.87515 15.473
      vertex 2.995 -3.46482 16.5352
      vertex 9 -1.87515 15.473
    endloop
  endfacet
  facet normal -2.61097e-16 0.19509 0.980785
    outer loop
      vertex 2.995 -1.87515 15.473
      vertex 9 -1.87515 15.473
      vertex 9 1.9984e-15 15.1
    endloop
  endfacet
  facet normal -2.61097e-16 0.19509 0.980785
    outer loop
      vertex 2.995 6.65024e-16 15.1
      vertex 2.995 -1.87515 15.473
      vertex 9 1.9984e-15 15.1
    endloop
  endfacet
  facet normal -1.74459e-16 -0.19509 0.980785
    outer loop
      vertex 2.995 6.65024e-16 15.1
      vertex 9 1.9984e-15 15.1
      vertex 9 1.87515 15.473
    endloop
  endfacet
  facet normal -1.74459e-16 -0.19509 0.980785
    outer loop
      vertex 2.995 1.87515 15.473
      vertex 2.995 6.65024e-16 15.1
      vertex 9 1.87515 15.473
    endloop
  endfacet
  facet normal -6.12619e-17 -0.555571 0.831469
    outer loop
      vertex 2.995 1.87515 15.473
      vertex 9 1.87515 15.473
      vertex 9 3.46482 16.5352
    endloop
  endfacet
  facet normal -6.12619e-17 -0.555571 0.831469
    outer loop
      vertex 2.995 3.46482 16.5352
      vertex 2.995 1.87515 15.473
      vertex 9 3.46482 16.5352
    endloop
  endfacet
  facet normal 0.0161801 -0.88534 0.464662
    outer loop
      vertex -6.49814e-16 3.88377 19.0427
      vertex 2.995 3.03289 17.3172
      vertex 2.995 3.93223 19.0308
    endloop
  endfacet
  facet normal 0.0161804 -0.88534 0.464662
    outer loop
      vertex -7.58398e-17 2.99404 17.3475
      vertex 2.995 3.03141 17.3144
      vertex 2.995 3.03289 17.3172
    endloop
  endfacet
  facet normal 0.0161804 -0.88534 0.464662
    outer loop
      vertex -6.49814e-16 3.88377 19.0427
      vertex -7.58398e-17 2.99404 17.3475
      vertex 2.995 3.03289 17.3172
    endloop
  endfacet
  facet normal 0.0161803 -0.56799 0.822876
    outer loop
      vertex -7.58398e-17 2.99404 17.3475
      vertex 2.995 1.43875 16.2151
      vertex 2.995 3.03141 17.3144
    endloop
  endfacet
  facet normal 0.0161803 -0.56799 0.822876
    outer loop
      vertex 5.15509e-16 1.41842 16.2599
      vertex 2.995 1.43612 16.2133
      vertex 2.995 1.43875 16.2151
    endloop
  endfacet
  facet normal 0.0161803 -0.56799 0.822876
    outer loop
      vertex -7.58398e-17 2.99404 17.3475
      vertex 5.15509e-16 1.41842 16.2599
      vertex 2.995 1.43875 16.2151
    endloop
  endfacet
  facet normal 0.0161803 -0.120521 0.992579
    outer loop
      vertex 5.15509e-16 1.41842 16.2599
      vertex 2.995 -0.484996 15.98
      vertex 2.995 1.43612 16.2133
    endloop
  endfacet
  facet normal 0.0161804 -0.120521 0.992579
    outer loop
      vertex 9.88761e-16 -0.482147 16.0292
      vertex 2.995 -0.488164 15.9796
      vertex 2.995 -0.484996 15.98
    endloop
  endfacet
  facet normal 0.0161804 -0.120521 0.992579
    outer loop
      vertex 5.15509e-16 1.41842 16.2599
      vertex 9.88761e-16 -0.482147 16.0292
      vertex 2.995 -0.484996 15.98
    endloop
  endfacet
  facet normal 0.0161804 0.354558 0.934894
    outer loop
      vertex 2.995 -2.29763 16.6659
      vertex 2.995 -0.488164 15.9796
      vertex 9.88761e-16 -0.482147 16.0292
    endloop
  endfacet
  facet normal 0.0161805 0.354558 0.934894
    outer loop
      vertex 1.2355e-15 -2.27226 16.7081
      vertex 2.995 -2.30061 16.667
      vertex 2.995 -2.29763 16.6659
    endloop
  endfacet
  facet normal 0.0161805 0.354558 0.934894
    outer loop
      vertex 9.88761e-16 -0.482147 16.0292
      vertex 1.2355e-15 -2.27226 16.7081
      vertex 2.995 -2.29763 16.6659
    endloop
  endfacet
  facet normal 0.0161804 0.748413 0.663036
    outer loop
      vertex 2.995 -3.58391 18.1155
      vertex 2.995 -2.30061 16.667
      vertex 1.2355e-15 -2.27226 16.7081
    endloop
  endfacet
  facet normal 0.0161803 0.748413 0.663036
    outer loop
      vertex 2.995 -3.58602 18.1179
      vertex 2.995 -3.58391 18.1155
      vertex 1.1992e-15 -3.54182 18.1411
    endloop
  endfacet
  facet normal 0.0161803 0.748413 0.663036
    outer loop
      vertex 1.1992e-15 -3.54182 18.1411
      vertex 2.995 -3.58391 18.1155
      vertex 1.2355e-15 -2.27226 16.7081
    endloop
  endfacet
  facet normal 0.0161803 0.970815 0.239284
    outer loop
      vertex 2.995 -4.04915 19.9969
      vertex 2.995 -3.58602 18.1179
      vertex 1.1992e-15 -3.54182 18.1411
    endloop
  endfacet
  facet normal 1 2.22045e-16 2.22045e-16
    outer loop
      vertex 2.995 4.52701 21.8751
      vertex 2.995 3.46482 23.4648
      vertex 2.995 1.87515 24.527
    endloop
  endfacet
  facet normal 1 2.22045e-16 2.22045e-16
    outer loop
      vertex 2.995 1.43612 23.7867
      vertex 2.995 4.52701 21.8751
      vertex 2.995 6.65024e-16 24.9
    endloop
  endfacet
  facet normal 1 2.22045e-16 2.22045e-16
    outer loop
      vertex 2.995 6.65024e-16 24.9
      vertex 2.995 4.52701 21.8751
      vertex 2.995 1.87515 24.527
    endloop
  endfacet
  facet normal 1 2.22045e-16 2.22045e-16
    outer loop
      vertex 2.995 1.43612 23.7867
      vertex 2.995 3.02878 22.6874
      vertex 2.995 4.52701 21.8751
    endloop
  endfacet
  facet normal 1 2.22045e-16 2.22045e-16
    outer loop
      vertex 2.995 -2.30061 23.333
      vertex 2.995 -0.491147 24.0193
      vertex 2.995 -1.87515 24.527
    endloop
  endfacet
  facet normal 1 2.22045e-16 2.22045e-16
    outer loop
      vertex 2.995 -3.58602 21.8821
      vertex 2.995 -2.30273 23.3306
      vertex 2.995 -3.46482 23.4648
    endloop
  endfacet
  facet normal 1 2.22045e-16 2.22045e-16
    outer loop
      vertex 2.995 -4.04992 20
      vertex 2.995 -4.52701 21.8751
      vertex 2.995 -4.9 20
    endloop
  endfacet
  facet normal 1 2.22045e-16 2.22045e-16
    outer loop
      vertex 2.995 -3.58602 18.1179
      vertex 2.995 -4.04915 19.9969
      vertex 2.995 -4.52701 18.1249
    endloop
  endfacet
  facet normal 1 2.22045e-16 2.22045e-16
    outer loop
      vertex 2.995 -2.30061 16.667
      vertex 2.995 -3.58391 18.1155
      vertex 2.995 -3.46482 16.5352
    endloop
  endfacet
  facet normal 1 2.22045e-16 2.22045e-16
    outer loop
      vertex 2.995 -0.488164 15.9796
      vertex 2.995 -2.29763 16.6659
      vertex 2.995 -1.87515 15.473
    endloop
  endfacet
  facet normal 1 2.22045e-16 2.22045e-16
    outer loop
      vertex 2.995 4.52701 18.1249
      vertex 2.995 4.52701 21.8751
      vertex 2.995 3.46482 16.5352
    endloop
  endfacet
  facet normal 1 2.22045e-16 2.22045e-16
    outer loop
      vertex 2.995 4.9 20
      vertex 2.995 4.52701 21.8751
      vertex 2.995 4.52701 18.1249
    endloop
  endfacet
  facet normal 1 2.22045e-16 2.22045e-16
    outer loop
      vertex 2.995 3.46482 16.5352
      vertex 2.995 4.52701 21.8751
      vertex 2.995 3.93223 19.0308
    endloop
  endfacet
  facet normal 1 2.22045e-16 2.22045e-16
    outer loop
      vertex 2.995 1.43612 16.2133
      vertex 2.995 -0.484996 15.98
      vertex 2.995 6.65024e-16 15.1
    endloop
  endfacet
  facet normal 1 2.22045e-16 2.22045e-16
    outer loop
      vertex 2.995 3.46482 16.5352
      vertex 2.995 3.93223 19.0308
      vertex 2.995 3.03289 17.3172
    endloop
  endfacet
  facet normal 1 2.22045e-16 2.22045e-16
    outer loop
      vertex 2.995 3.46482 16.5352
      vertex 2.995 3.03141 17.3144
      vertex 2.995 1.87515 15.473
    endloop
  endfacet
  facet normal 1 2.22045e-16 2.22045e-16
    outer loop
      vertex 2.995 3.46482 16.5352
      vertex 2.995 3.03289 17.3172
      vertex 2.995 3.03141 17.3144
    endloop
  endfacet
  facet normal 1 2.22045e-16 2.22045e-16
    outer loop
      vertex 2.995 1.87515 15.473
      vertex 2.995 1.43875 16.2151
      vertex 2.995 6.65024e-16 15.1
    endloop
  endfacet
  facet normal 1 2.22045e-16 2.22045e-16
    outer loop
      vertex 2.995 1.43875 16.2151
      vertex 2.995 1.43612 16.2133
      vertex 2.995 6.65024e-16 15.1
    endloop
  endfacet
  facet normal 1 2.22045e-16 2.22045e-16
    outer loop
      vertex 2.995 3.03141 17.3144
      vertex 2.995 1.43875 16.2151
      vertex 2.995 1.87515 15.473
    endloop
  endfacet
  facet normal 1 2.22045e-16 2.22045e-16
    outer loop
      vertex 2.995 6.65024e-16 15.1
      vertex 2.995 -0.484996 15.98
      vertex 2.995 -1.87515 15.473
    endloop
  endfacet
  facet normal 1 2.22045e-16 2.22045e-16
    outer loop
      vertex 2.995 -0.484996 15.98
      vertex 2.995 -0.488164 15.9796
      vertex 2.995 -1.87515 15.473
    endloop
  endfacet
  facet normal 1 2.22045e-16 2.22045e-16
    outer loop
      vertex 2.995 -1.87515 15.473
      vertex 2.995 -2.29763 16.6659
      vertex 2.995 -3.46482 16.5352
    endloop
  endfacet
  facet normal 1 2.22045e-16 2.22045e-16
    outer loop
      vertex 2.995 -2.29763 16.6659
      vertex 2.995 -2.30061 16.667
      vertex 2.995 -3.46482 16.5352
    endloop
  endfacet
  facet normal 1 2.22045e-16 2.22045e-16
    outer loop
      vertex 2.995 -3.46482 16.5352
      vertex 2.995 -3.58391 18.1155
      vertex 2.995 -4.52701 18.1249
    endloop
  endfacet
  facet normal 1 2.22045e-16 2.22045e-16
    outer loop
      vertex 2.995 -3.58391 18.1155
      vertex 2.995 -3.58602 18.1179
      vertex 2.995 -4.52701 18.1249
    endloop
  endfacet
  facet normal 1 2.22045e-16 2.22045e-16
    outer loop
      vertex 2.995 -4.52701 18.1249
      vertex 2.995 -4.04915 19.9969
      vertex 2.995 -4.9 20
    endloop
  endfacet
  facet normal 1 2.22045e-16 2.22045e-16
    outer loop
      vertex 2.995 -4.04915 19.9969
      vertex 2.995 -4.04992 20
      vertex 2.995 -4.9 20
    endloop
  endfacet
  facet normal 1 2.22045e-16 2.22045e-16
    outer loop
      vertex 2.995 -4.52701 21.8751
      vertex 2.995 -3.58679 21.879
      vertex 2.995 -3.46482 23.4648
    endloop
  endfacet
  facet normal 1 2.22045e-16 2.22045e-16
    outer loop
      vertex 2.995 -3.58679 21.879
      vertex 2.995 -3.58602 21.8821
      vertex 2.995 -3.46482 23.4648
    endloop
  endfacet
  facet normal 1 2.22045e-16 2.22045e-16
    outer loop
      vertex 2.995 -3.46482 23.4648
      vertex 2.995 -2.30273 23.3306
      vertex 2.995 -1.87515 24.527
    endloop
  endfacet
  facet normal 1 2.22045e-16 2.22045e-16
    outer loop
      vertex 2.995 -2.30273 23.3306
      vertex 2.995 -2.30061 23.333
      vertex 2.995 -1.87515 24.527
    endloop
  endfacet
  facet normal 1 2.22045e-16 2.22045e-16
    outer loop
      vertex 2.995 -1.87515 24.527
      vertex 2.995 -0.491147 24.0193
      vertex 2.995 6.65024e-16 24.9
    endloop
  endfacet
  facet normal 1 2.22045e-16 2.22045e-16
    outer loop
      vertex 2.995 -0.491147 24.0193
      vertex 2.995 -0.488164 24.0204
      vertex 2.995 6.65024e-16 24.9
    endloop
  endfacet
  facet normal 1 2.22045e-16 2.22045e-16
    outer loop
      vertex 2.995 -0.488164 24.0204
      vertex 2.995 1.43295 23.7871
      vertex 2.995 6.65024e-16 24.9
    endloop
  endfacet
  facet normal 1 2.22045e-16 2.22045e-16
    outer loop
      vertex 2.995 1.43295 23.7871
      vertex 2.995 1.43612 23.7867
      vertex 2.995 6.65024e-16 24.9
    endloop
  endfacet
  facet normal 1 2.22045e-16 2.22045e-16
    outer loop
      vertex 2.995 3.03141 22.6856
      vertex 2.995 4.52701 21.8751
      vertex 2.995 3.02878 22.6874
    endloop
  endfacet
  facet normal 1 2.22045e-16 2.22045e-16
    outer loop
      vertex 2.995 -4.04992 20
      vertex 2.995 -3.58679 21.879
      vertex 2.995 -4.52701 21.8751
    endloop
  endfacet
  facet normal 1 2.22045e-16 2.22045e-16
    outer loop
      vertex 2.995 3.93223 20.9692
      vertex 2.995 4.52701 21.8751
      vertex 2.995 3.93075 20.972
    endloop
  endfacet
  facet normal 1 2.22045e-16 2.22045e-16
    outer loop
      vertex 2.995 3.93223 20.9692
      vertex 2.995 3.93223 19.0308
      vertex 2.995 4.52701 21.8751
    endloop
  endfacet
  facet normal 1 2.22045e-16 2.22045e-16
    outer loop
      vertex 2.995 3.03141 22.6856
      vertex 2.995 3.93075 20.972
      vertex 2.995 4.52701 21.8751
    endloop
  endfacet
endsolid OpenSCAD_Model
